<?xml version="1.0" encoding="utf-8"?>
<!-- Uploaded to: SVG Repo, www.svgrepo.com, Generator: SVG Repo Mixer Tools -->
<svg width="800px" height="800px" viewBox="0 0 1024 1024" class="icon"  version="1.1" xmlns="http://www.w3.org/2000/svg"><path d="M163.84 153.6h30.72c8.704 0 15.36 6.656 15.36 15.36v163.84c0 8.704-6.656 15.36-15.36 15.36h-30.72c-8.704 0-15.36-6.656-15.36-15.36V168.96c0-8.704 6.656-15.36 15.36-15.36z" fill="#7ED321" /><path d="M755.2 348.16h-486.4c-18.432 0-33.28-14.848-33.28-33.28v-128c0-18.432 14.848-33.28 33.28-33.28h486.4c18.432 0 33.28 14.848 33.28 33.28v128c0 18.432-14.848 33.28-33.28 33.28z m-486.4-179.2c-9.728 0-17.92 8.192-17.92 17.92v128c0 9.728 8.192 17.92 17.92 17.92h486.4c9.728 0 17.92-8.192 17.92-17.92v-128c0-9.728-8.192-17.92-17.92-17.92h-486.4zM512 921.088H440.32c-14.336 0-25.6-11.264-25.6-25.6V593.92l122.88 0.512v301.056c0 13.824-11.264 25.6-25.6 25.6zM430.08 609.28v286.208c0 5.632 4.608 10.24 10.24 10.24h71.68c5.632 0 10.24-4.608 10.24-10.24v-285.696l-92.16-0.512zM537.6 573.44H414.72v-15.36c0-14.336 11.264-25.6 25.6-25.6h71.68c14.336 0 25.6 11.264 25.6 25.6v15.36z m-107.52-15.36h92.16c0-5.632-4.608-10.24-10.24-10.24H440.32c-5.632 0-10.24 4.608-10.24 10.24zM194.56 355.84h-30.72c-12.8 0-23.04-10.24-23.04-23.04V168.96c0-12.8 10.24-23.04 23.04-23.04h30.72c12.8 0 23.04 10.24 23.04 23.04v163.84c0 12.8-10.24 23.04-23.04 23.04z m-30.72-194.56c-4.096 0-7.68 3.584-7.68 7.68v163.84c0 4.096 3.584 7.68 7.68 7.68h30.72c4.096 0 7.68-3.584 7.68-7.68V168.96c0-4.096-3.584-7.68-7.68-7.68h-30.72z" fill="" /><path d="M865.28 353.28V245.76c0-5.632-4.608-10.24-10.24-10.24h-56.32v35.84h20.48c5.632 0 10.24 4.608 10.24 10.24v93.184c-0.512 5.12-4.608 9.216-10.24 9.216H471.04c-5.632 0-10.24 4.608-10.24 10.24v124.928h35.84V430.08c0-5.632 4.608-10.24 10.24-10.24h348.16c5.632 0 10.24-4.608 10.24-10.24V353.28z" fill="#7ED321" /></svg>