<?xml version="1.0" encoding="utf-8"?>
<!-- Uploaded to: SVG Repo, www.svgrepo.com, Generator: SVG Repo Mixer Tools -->
<svg width="800px" height="800px" viewBox="0 0 1024 1024" class="icon"  version="1.1" xmlns="http://www.w3.org/2000/svg"><path d="M533.654 522.109l-65.762-65.76c-9.079-9.081-23.799-9.081-32.88 0-9.079 9.079-9.079 23.801 0 32.88l65.762 65.76c9.079 9.079 23.799 9.079 32.88 0 9.079-9.079 9.079-23.801 0-32.88M265.686 757.196l186-186c9.079-9.081 9.079-23.801 0-32.88-9.081-9.081-23.801-9.081-32.88 0l-186 186c-9.081 9.079-9.081 23.799 0 32.88 9.079 9.079 23.799 9.079 32.88 0" fill="#FF9966" /><path d="M870.185 185.568l-65.76-65.753a23.218 23.218 0 0 0-28.367-3.515l-163.494 97.722a23.315 23.315 0 0 0-11.323 19.958v56.132l-152.833 152.84c-9.47-4.48-19.642-6.989-29.834-6.975-17.751-0.023-35.751 6.791-49.322 20.374L153.373 672.229c-13.58 13.571-20.397 31.571-20.374 49.322-0.023 17.749 6.794 35.749 20.379 49.318l65.749 65.758c13.571 13.58 31.571 20.397 49.322 20.374 17.754 0.023 35.751-6.794 49.322-20.372l215.88-215.88c13.58-13.573 20.395-31.571 20.372-49.322 0.014-10.193-2.495-20.367-6.975-29.837l152.841-152.834 56.123 0.002c8.154 0 15.77-4.322 19.955-11.32L873.7 213.937a23.22 23.22 0 0 0-3.515-28.369zM742.82 342.259h-52.563c-6.122 0-12.109 2.478-16.438 6.808L500.771 522.102c-4.329 4.329-6.81 10.321-6.81 16.442s2.481 12.111 6.81 16.44c4.504 4.51 6.731 10.353 6.752 16.442-0.021 6.087-2.248 11.927-6.754 16.442l-215.878 215.88c-4.513 4.504-10.356 6.729-16.442 6.752-6.087-0.023-11.93-2.248-16.442-6.752l-65.753-65.765c-4.506-4.513-6.731-10.349-6.754-16.433 0.023-6.087 2.248-11.93 6.754-16.44l215.878-215.883c4.513-4.504 10.353-6.729 16.442-6.752 6.087 0.023 11.925 2.248 16.435 6.749 4.327 4.329 10.318 6.812 16.44 6.812 6.122 0 12.113-2.478 16.442-6.81l173.04-173.045c4.329-4.329 6.81-10.318 6.81-16.44v-52.575L784.36 165.51l40.129 40.127-81.669 136.622z" fill="#805D4C" /></svg>