<svg xmlns="http://www.w3.org/2000/svg" xml:space="preserve" id="cleaning" x="0" y="0" enable-background="new 0 0 5000 5000" version="1.1" viewBox="0 0 5000 5000">
  <g>
    <g>
      <path fill="#fdfdfd" d="M3547.91,621.74v2008.24h-298.28V621.74c0-82.2,66.63-148.83,148.82-148.83c41.1,0,78.46,16.81,105.86,43.59
			C3531.09,543.28,3547.91,580.64,3547.91,621.74z"></path>
      <path fill="#191432" d="M3547.92,2661.13h-298.28c-17.21,0-31.14-13.93-31.14-31.14V621.73c0-99.24,80.7-179.97,179.94-179.97
			c47.68,0,92.98,18.64,127.64,52.45c34.24,34.3,52.97,79.51,52.97,127.52V2630C3579.05,2647.21,3565.13,2661.13,3547.92,2661.13z
			 M3280.77,2598.86h236.01V621.73c0-31.41-12.22-60.96-34.48-83.22c-22.68-22.14-52.54-34.48-83.86-34.48
			c-64.89,0-117.67,52.81-117.67,117.7V2598.86z"></path>
    </g>
    <g>
      <g>
        <g>
          <path fill="#fdfdfd" d="M2616.27,2486.01l-145.24,1725.98c-11.46,139.24-128.31,246.26-267.55,246.26H1055.18
					c-139.24,0-255.54-107.02-267.55-246.26L642.39,2486.01H2616.27z"></path>
          <path fill="#191432" d="M2203.5,4489.37H1055.2c-156.65,0-285.02-118.1-298.58-274.69L611.4,2488.61
					c-0.73-8.7,2.19-17.27,8.09-23.69c5.9-6.42,14.23-10.06,22.93-10.06h1973.88c8.7,0,17.03,3.65,22.93,10.06
					c5.9,6.42,8.82,14.99,8.09,23.69l-145.28,1726.01C2489.37,4368.66,2358.26,4489.37,2203.5,4489.37z M676.28,2517.13
					l142.36,1692.26c10.58,122.05,114.45,217.71,236.56,217.71h1148.3c122.6,0,226.46-95.6,236.5-217.64l142.42-1692.32H676.28z"></path>
        </g>
        <g>
          <path fill="#fdfdfd" d="M2755.25,2236.42v252.78c0,53.73-43.55,97.29-96.88,97.29H600.34c-53.32,0-96.88-43.55-96.88-97.29v-252.78
					c0-53.73,43.55-96.88,96.88-96.88h2058.04C2711.7,2139.54,2755.25,2182.69,2755.25,2236.42z"></path>
          <path fill="#191432" d="M2658.37,2617.59H600.33c-70.6,0-128.01-57.59-128.01-128.4v-252.76c0-70.57,57.41-128.01,128.01-128.01
					h2058.04c70.6,0,128.01,57.44,128.01,128.01v252.76C2786.38,2560,2728.97,2617.59,2658.37,2617.59z M600.33,2170.69
					c-36.24,0-65.74,29.49-65.74,65.74v252.76c0,36.46,29.49,66.13,65.74,66.13h2058.04c36.24,0,65.74-29.68,65.74-66.13v-252.76
					c0-36.24-29.49-65.74-65.74-65.74H600.33z"></path>
        </g>
        <g>
          <path fill="#7774ff" d="M673.2,2139.54c0,0,20.79-433.13,470.27-383.76c0,0,285.8-472.87,706.71-96.13c0,0,302.22-248.4,569,6.93
					c197.27,188.8,89.21,472.96,89.21,472.96H673.2z"></path>
          <path fill="#191432" d="M2508.41,2170.69H673.18c-8.51,0-16.66-3.5-22.56-9.64c-5.84-6.17-8.94-14.47-8.51-22.99
					c0.36-8.18,11.25-201.95,153.61-323.55c84.47-72.06,196.48-102.53,332.03-91.55c35.94-52.15,157.44-208.22,342.85-235.95
					c126-19.06,254.5,25.72,381.35,132.9c77.11-52.63,347.54-206.67,588.78,24.17c209.8,200.77,101.49,494.12,96.81,506.53
					C2532.91,2162.69,2521.36,2170.69,2508.41,2170.69z M708.33,2108.42h1777.34c18.67-65.25,62.76-275.05-87.99-419.33
					c-243.31-232.82-516.29-14.75-527.72-5.35c-11.98,9.76-29.25,9.3-40.5-0.88c-118.4-105.93-235.83-151.33-349.24-134.33
					c-189.43,28.13-308.92,221.44-310.08,223.39c-6.32,10.4-18,16.18-30.04,14.81c-126.73-14.08-228.83,11.31-303.51,74.8
					C746.7,1938.03,717.51,2052.72,708.33,2108.42z"></path>
        </g>
        <g>
          <circle cx="1032.63" cy="1445.65" r="132.42" fill="#7774ff"></circle>
          <path fill="#191432" d="M1032.64,1609.19c-90.18,0-163.58-73.37-163.58-163.55s73.4-163.55,163.58-163.55
					s163.58,73.37,163.58,163.55S1122.82,1609.19,1032.64,1609.19z M1032.64,1344.35c-55.89,0-101.31,45.43-101.31,101.28
					c0,55.86,45.43,101.28,101.31,101.28c55.89,0,101.31-45.43,101.31-101.28C1133.95,1389.78,1088.52,1344.35,1032.64,1344.35z"></path>
        </g>
        <g>
          <circle cx="1783.12" cy="1084.22" r="212.69" fill="#7774ff"></circle>
          <path fill="#191432" d="M1783.11,1328.06c-134.45,0-243.79-109.37-243.79-243.82s109.34-243.82,243.79-243.82
					s243.85,109.37,243.85,243.82S1917.56,1328.06,1783.11,1328.06z M1783.11,902.68c-100.1,0-181.52,81.46-181.52,181.55
					s81.43,181.55,181.52,181.55s181.58-81.46,181.58-181.55S1883.2,902.68,1783.11,902.68z"></path>
        </g>
      </g>
      <g>
        <path fill="#7774ff" d="M1520.88,2676.3L658.19,3446.8c-40.87,36.5-103.61,32.96-140.11-7.91l-111.8-125.17
				c-36.5-40.86-32.96-103.61,7.91-140.11l862.69-770.51L1520.88,2676.3z"></path>
        <path fill="#191432" d="M592.18,3503.13c-35.88,0-71.58-14.72-97.3-43.48l-111.83-125.21c-47.86-53.57-43.18-136.16,10.4-184.08
				l862.67-770.48c12.83-11.43,32.53-10.43,43.97,2.49l244.04,273.16c5.47,6.14,8.33,14.23,7.84,22.5
				c-0.43,8.21-4.2,15.93-10.34,21.47l-862.67,770.54C654.15,3492.18,623.07,3503.13,592.18,3503.13z M1274.36,2447.08
				l-839.44,749.74c-27.97,24.99-30.41,68.17-5.41,96.14l111.83,125.21c25.05,28.03,68.23,30.53,96.14,5.41l839.44-749.8
				L1274.36,2447.08z"></path>
      </g>
      <g>
        <circle cx="1594.69" cy="2347.92" r="387.38" fill="#fdfdfd"></circle>
        <path fill="#191432" d="M1594.72,2766.46c-230.78,0-418.56-187.76-418.56-418.53s187.79-418.53,418.56-418.53
				s418.5,187.76,418.5,418.53S1825.49,2766.46,1594.72,2766.46z M1594.72,1991.66c-196.48,0-356.29,159.81-356.29,356.26
				s159.81,356.26,356.29,356.26c196.42,0,356.23-159.81,356.23-356.26S1791.14,1991.66,1594.72,1991.66z"></path>
      </g>
      <g>
        <circle cx="1594.69" cy="2347.92" r="161.09" fill="#7774ff"></circle>
        <path fill="#191432" d="M1594.72,2540.15c-106.06,0-192.29-86.23-192.29-192.22s86.23-192.22,192.29-192.22
				c105.99,0,192.22,86.23,192.22,192.22S1700.71,2540.15,1594.72,2540.15z M1594.72,2217.97c-71.7,0-130.01,58.29-130.01,129.95
				s58.32,129.95,130.01,129.95c71.64,0,129.95-58.29,129.95-129.95S1666.35,2217.97,1594.72,2217.97z"></path>
      </g>
    </g>
    <g>
      <g>
        <path fill="#7774ff" d="M4618.86,4249.58c0,0-157.95,239.05-482.6,162.19c0,0-228.97,235.87-484.98,15.37
				c0,0-56.45,109.72-252.56,99.12c-196.38,10.6-252.82-99.12-252.82-99.12c-256.01,220.49-484.72-15.37-484.72-15.37
				c-324.91,76.86-482.86-162.19-482.86-162.19c478.35-446.55,563.96-1182.51,563.96-1182.51H4054.9
				C4054.9,3067.07,4140.77,3803.03,4618.86,4249.58z"></path>
        <path fill="#191432" d="M3425.02,4558.15c-9,0-18.3-0.24-27.97-0.79c-146.31,8.7-222.87-48.71-256.62-85.74
				c-228.65,173.31-434.98,20.37-488.32-25.91c-331.6,68.9-498.05-176.41-499.75-178.97c-8.39-12.65-6.39-29.55,4.74-39.89
				c464.11-433.28,553.44-1156.15,554.24-1163.38c1.89-15.69,15.14-27.55,30.95-27.55H4054.9c15.81,0,29.07,11.86,30.95,27.55
				c0.85,7.24,90.37,730.1,554.24,1163.38c11.13,10.34,13.14,27.24,4.74,39.89c-1.7,2.55-168.75,248.35-499.5,178.97
				c-53.33,46.28-259.79,199.22-488.62,25.84C3624.97,4506.21,3555.58,4558.15,3425.02,4558.15z M3145.89,4396.02
				c2.01,0,3.95,0.18,5.96,0.55c9.36,1.82,17.39,7.84,21.71,16.36c1.95,3.41,52.78,90.55,223.48,82.28
				c174.83,8.33,224.7-78.87,226.77-82.64c4.5-8.21,12.59-14.17,21.83-15.87c8.94-1.82,18.79,0.73,25.97,6.87
				c231.14,199.04,433.77-4.68,442.34-13.5c7.54-7.84,18.79-11.13,29.49-8.57c246.23,58.26,388.4-75.35,433.65-128.68
				c-417.35-405.92-528.88-1016.34-549.37-1154.63H2769.47c-20.43,138.29-131.78,748.71-549.37,1154.63
				c45.24,53.33,187.18,187.06,433.89,128.68c10.82-2.43,21.89,0.79,29.49,8.57c8.64,8.82,211.93,211.87,442.1,13.5
				C3131.3,4398.64,3138.47,4396.02,3145.89,4396.02z"></path>
      </g>
      <g>
        <path fill="#191432" d="M2661.17,4442.91c-4.74,0-9.49-1.03-13.99-3.34c-15.39-7.72-21.53-26.39-13.8-41.78
				c1.89-3.83,192.35-384.02,248.48-600.45c45.43-175.08,64.89-478.28,65.07-481.32c1.09-17.09,13.44-30.77,33.02-29.13
				c17.15,1.09,30.22,15.87,29.13,33.02c-0.79,12.65-20.01,312.15-66.89,493.06c-57.83,222.87-245.25,596.99-253.22,612.8
				C2683.54,4436.64,2672.54,4442.91,2661.17,4442.91z"></path>
      </g>
      <g>
        <path fill="#191432" d="M4144.36,4442.91c-11.37,0-22.38-6.26-27.79-17.15c-7.97-15.81-195.39-389.92-253.22-612.74
				c-46.95-180.97-66.1-480.47-66.89-493.12c-1.09-17.15,11.98-31.93,29.13-33.02c16.6-1.58,31.93,11.98,33.02,29.13
				c0.18,3.04,19.58,306.25,65.07,481.32c56.13,216.43,246.59,596.62,248.48,600.45c7.72,15.39,1.58,34.05-13.8,41.78
				C4153.84,4441.87,4149.1,4442.91,4144.36,4442.91z"></path>
      </g>
      <g>
        <path fill="#191432" d="M3651.3,4458.29c-11.61,0-22.74-6.51-28.09-17.76c-6.57-13.8-160.97-345.29-133.91-977.3
				c0.73-17.15,13.2-29.74,32.47-29.8c17.15,0.79,30.53,15.26,29.8,32.47c-26.45,616.63,126.31,944.58,127.83,947.87
				c7.42,15.51,0.85,34.05-14.72,41.47C3660.36,4457.32,3655.8,4458.29,3651.3,4458.29z"></path>
      </g>
      <g>
        <path fill="#191432" d="M3143.46,4458.29c-4.5,0-9.06-0.97-13.38-3.04c-15.51-7.36-22.07-25.97-14.72-41.47
				c1.52-3.28,154.22-333,127.83-947.87c-0.73-17.21,12.65-31.68,29.8-32.47c17.82,0,31.74,12.59,32.47,29.8
				c27.06,632.01-127.34,963.5-133.91,977.3C3166.2,4451.73,3155.08,4458.29,3143.46,4458.29z"></path>
      </g>
    </g>
    <g>
      <path fill="#7774ff" d="M3802.6,2663.37v113.23c0,74.66-60.52,135.18-135.18,135.18h-537.3c-74.66,0-135.18-60.52-135.18-135.18
			v-113.23c0-74.66,60.52-135.18,135.18-135.18h537.3C3742.08,2528.19,3802.6,2588.71,3802.6,2663.37z"></path>
      <path fill="#191432" d="M3667.41,2942.93h-537.27c-91.7,0-166.32-74.62-166.32-166.32v-113.23c0-91.7,74.62-166.32,166.32-166.32
			h537.27c91.7,0,166.32,74.62,166.32,166.32v113.23C3833.73,2868.32,3759.12,2942.93,3667.41,2942.93z M3130.14,2559.34
			c-57.35,0-104.05,46.7-104.05,104.05v113.23c0,57.35,46.7,104.05,104.05,104.05h537.27c57.35,0,104.05-46.7,104.05-104.05v-113.23
			c0-57.35-46.7-104.05-104.05-104.05H3130.14z"></path>
    </g>
    <g>
      <path fill="#fdfdfd" d="M4054.9,2886.07v181.01H2742.27v-181.01c0-71.55,58.04-129.59,129.59-129.59h1053.44
			C3996.86,2756.47,4054.9,2814.51,4054.9,2886.07z"></path>
      <path fill="#191432" d="M4054.9,3098.19H2742.29c-17.21,0-31.14-13.93-31.14-31.14v-180.97c0-88.6,72.12-160.72,160.72-160.72
			h1053.44c88.6,0,160.72,72.12,160.72,160.72v180.97C4086.04,3084.26,4072.11,3098.19,4054.9,3098.19z M2773.42,3035.91h1250.34
			v-149.84c0-54.3-44.15-98.45-98.45-98.45H2871.88c-54.3,0-98.45,44.15-98.45,98.45V3035.91z"></path>
    </g>
  </g>
</svg>
