<?xml version="1.0" encoding="utf-8"?>
<!-- Uploaded to: SVG Repo, www.svgrepo.com, Generator: SVG Repo Mixer Tools -->
<svg width="800px" height="800px" viewBox="0 0 1024 1024" class="icon"  version="1.1" xmlns="http://www.w3.org/2000/svg"><path d="M575.116 613.961c11.897-11.895 17.869-27.667 17.848-43.221 0.02-15.556-5.952-31.329-17.848-43.219l-57.631-57.631c-11.895-11.901-27.667-17.875-43.223-17.855-15.557-0.02-31.333 5.952-43.226 17.859-7.954 7.958-7.952 20.86 0.008 28.814 7.958 7.954 20.86 7.952 28.816-0.008 3.947-3.945 9.063-5.894 14.401-5.915 5.332 0.02 10.452 1.97 14.409 5.919l57.629 57.629c3.945 3.953 5.897 9.073 5.917 14.407-0.023 5.336-1.973 10.454-5.919 14.409-7.956 7.958-7.956 20.86 0.002 28.816 7.959 7.955 20.86 7.955 28.817-0.004z" fill="#FF9966" /><path d="M340.282 733.536l163-163c7.956-7.958 7.956-20.858 0-28.814-7.958-7.958-20.858-7.958-28.816 0l-163 163c-7.957 7.956-7.957 20.856 0 28.814 7.958 7.956 20.857 7.956 28.816 0M549.998 408.559l-61.329 61.331c-7.956 7.956-7.956 20.858 0 28.814 7.958 7.956 20.86 7.956 28.816 0l61.329-61.331c7.956-7.956 7.956-20.858 0-28.814-7.959-7.957-20.86-7.957-28.816 0M607.628 466.188l-61.329 61.331c-7.958 7.956-7.958 20.858 0 28.814 7.956 7.956 20.858 7.956 28.814 0l61.329-61.331c7.956-7.956 7.956-20.858 0-28.814-7.958-7.957-20.857-7.957-28.814 0M753.749 719.129v20.373c22.537-0.055 40.693-18.211 40.748-40.748-0.055-22.537-18.211-40.695-40.748-40.75-22.537 0.055-40.695 18.213-40.75 40.75 0.055 22.537 18.213 40.693 40.75 40.748V698.754h-0.002l0.002-0.002v20.377z" fill="#FF9966" /><path d="M753.749 576.502c-2.439 0.01-4.478 0.23-6.573 0.42l-70.18-70.182-26.145-26.143 69.939-69.941 49.185 0.002c7.146 0 13.82-3.788 17.488-9.921l85.648-143.283a20.35 20.35 0 0 0-3.083-24.862l-57.629-57.622a20.345 20.345 0 0 0-24.857-3.081l-143.277 85.638a20.428 20.428 0 0 0-9.923 17.49v49.191l-69.939 69.939-20.177-20.175a163.253 163.253 0 0 0 5.536-42.087c0.018-41.665-15.919-83.558-47.62-115.259-31.701-31.703-73.596-47.639-115.263-47.62-18.511 0-37.023 3.126-54.672 9.417a20.305 20.305 0 0 0-13.034 14.717 20.31 20.31 0 0 0 5.471 18.884l83.344 83.34-9.602 48.026-48.026 9.605-83.346-83.352a20.311 20.311 0 0 0-18.884-5.471 20.311 20.311 0 0 0-14.717 13.04c-6.288 17.647-9.415 36.157-9.415 54.666-0.016 41.669 15.917 83.566 47.629 115.273 31.697 31.706 73.59 47.637 115.251 47.62 6.938 0 13.857-0.587 20.748-1.467L241.854 659.075c-11.901 11.893-17.873 27.667-17.853 43.223-0.02 15.554 5.954 31.329 17.859 43.219l57.616 57.627c11.895 11.901 27.667 17.875 43.226 17.855 15.558 0.02 31.331-5.954 43.221-17.853l178.481-178.481 23.474 23.47 44.038 44.045c-0.187 2.095-0.41 4.136-0.418 6.571 0.033 67.478 54.772 122.217 122.25 122.25 67.476-0.033 122.215-54.772 122.248-122.25-0.031-67.475-54.771-122.215-122.247-122.249z m0 203.75c-44.904-0.081-81.418-36.595-81.502-81.5-0.022-2.592 0.499-6.2 1.221-11.218a20.328 20.328 0 0 0-5.775-17.205L616.69 619.32l-38.12-38.113-0.516-0.518a20.39 20.39 0 0 0-16.457-5.864 20.377 20.377 0 0 0-14.949 9.04l-1.807 2.732-187.729 187.736c-3.955 3.947-9.075 5.896-14.409 5.917-5.336-0.02-10.454-1.97-14.409-5.917L270.671 716.7c-3.948-3.955-5.899-9.069-5.921-14.401 0.022-5.336 1.973-10.454 5.919-14.407l187.733-187.733 2.734-1.805a20.39 20.39 0 0 0 9.04-14.951 20.387 20.387 0 0 0-5.864-16.457l-0.518-0.518-14.674-14.674a20.393 20.393 0 0 0-21.247-4.786c-13.183 4.698-27.08 7.054-40.997 7.054-31.39-0.016-62.665-11.915-86.434-35.685-23.778-23.782-35.679-55.061-35.695-86.459 0-2.121 0.428-4.216 0.538-6.333l63.969 63.973a20.39 20.39 0 0 0 18.403 5.573l72.038-14.407a20.346 20.346 0 0 0 15.984-15.984l14.405-72.038a20.376 20.376 0 0 0-5.573-18.405l-63.969-63.965c2.121-0.108 4.214-0.538 6.337-0.538 31.394 0.018 62.675 11.921 86.449 35.687 23.767 23.774 35.67 55.055 35.687 86.445 0 13.922-2.353 27.816-7.052 40.99a20.393 20.393 0 0 0 4.786 21.247l28.841 28.843 14.407 14.405a20.503 20.503 0 0 0 14.407 5.968 20.51 20.51 0 0 0 14.407-5.968l90.314-90.314a20.51 20.51 0 0 0 5.968-14.407v-46.074l119.723-71.563 35.167 35.165-71.569 119.73H712.35a20.506 20.506 0 0 0-14.407 5.968L607.63 466.19c-7.958 7.956-7.958 20.856 0 28.814l40.55 40.55 77.142 77.144a20.31 20.31 0 0 0 17.186 5.776c5.049-0.721 8.655-1.247 11.241-1.222 44.903 0.083 81.418 36.598 81.5 81.5-0.081 44.904-36.597 81.418-81.5 81.5z" fill="#805D4C" /></svg>